HIERARCHY
ROOT Hips
{
	OFFSET 50.016998 -13.941716 100.667999
	CHANNELS 6 Xposition Yposition Zposition Xrotation Yrotation Zrotation
	JOINT spine
	{
		OFFSET 0.000000 -0.507026 8.817047
		CHANNELS 3 Xrotation Yrotation Zrotation
		JOINT spine1
		{
			OFFSET 0.000000 -0.000002 10.776596
			CHANNELS 3 Xrotation Yrotation Zrotation
			JOINT spine2
			{
				OFFSET 0.000000 -0.000001 10.325897
				CHANNELS 3 Xrotation Yrotation Zrotation
				JOINT Neck
				{
					OFFSET 0.000000 -1.263955 26.511002
					CHANNELS 3 Xrotation Yrotation Zrotation
					JOINT Head
					{
						OFFSET 0.000000 -0.000001 8.009659
						CHANNELS 3 Xrotation Yrotation Zrotation
						End Site
						{
							OFFSET 0.000000 6.393856 19.387894
						}
					}
				}
				JOINT RightShoulder
				{
					OFFSET -4.347950 0.605420 11.151199
					CHANNELS 3 Xrotation Yrotation Zrotation
					JOINT RightArm
					{
						OFFSET 0.000000 -0.000003 14.625793
						CHANNELS 3 Xrotation Yrotation Zrotation
						JOINT RightArmRoll
						{
							OFFSET 0.000000 -0.000001 7.383392
							CHANNELS 3 Xrotation Yrotation Zrotation
							JOINT RightForeArm
							{
								OFFSET 0.000000 -0.000004 21.505203
								CHANNELS 3 Xrotation Yrotation Zrotation
								JOINT RightForeArmRoll
								{
									OFFSET 0.000000 -0.000001 8.285324
									CHANNELS 3 Xrotation Yrotation Zrotation
									JOINT RightHand
									{
										OFFSET 0.000000 -0.000003 16.626801
										CHANNELS 3 Xrotation Yrotation Zrotation
										End Site
										{
											OFFSET 0.000000 0.000000 0.100006
										}
									}
								}
							}
						}
					}
				}
				JOINT LeftShoulder
				{
					OFFSET 4.347950 0.605420 11.151199
					CHANNELS 3 Xrotation Yrotation Zrotation
					JOINT LeftArm
					{
						OFFSET 0.000000 -0.000003 14.625793
						CHANNELS 3 Xrotation Yrotation Zrotation
						JOINT LeftArmRoll
						{
							OFFSET 0.000000 -0.000001 7.383392
							CHANNELS 3 Xrotation Yrotation Zrotation
							JOINT LeftForeArm
							{
								OFFSET 0.000000 -0.000004 21.505203
								CHANNELS 3 Xrotation Yrotation Zrotation
								JOINT LeftForeArmRoll
								{
									OFFSET 0.000000 -0.000001 8.285324
									CHANNELS 3 Xrotation Yrotation Zrotation
									JOINT LeftHand
									{
										OFFSET 0.000000 -0.000003 16.626801
										CHANNELS 3 Xrotation Yrotation Zrotation
										End Site
										{
											OFFSET 0.000000 0.000000 0.100006
										}
									}
								}
							}
						}
					}
				}
			}
		}
	}
	JOINT RightUpLeg
	{
		OFFSET -7.815102 1.202170 -1.433090
		CHANNELS 3 Xrotation Yrotation Zrotation
		JOINT RightUpLegRoll
		{
			OFFSET 0.000000 -0.000003 19.495895
			CHANNELS 3 Xrotation Yrotation Zrotation
			JOINT RightLeg
			{
				OFFSET 0.000000 0.000004 -24.142700
				CHANNELS 3 Xrotation Yrotation Zrotation
				JOINT RightLegRoll
				{
					OFFSET 0.000000 -0.000004 24.221703
					CHANNELS 3 Xrotation Yrotation Zrotation
					JOINT RightFoot
					{
						OFFSET 0.000000 -0.000004 20.160500
						CHANNELS 3 Xrotation Yrotation Zrotation
						JOINT RightToeBase
						{
							OFFSET 0.000000 -0.000003 16.853195
							CHANNELS 3 Xrotation Yrotation Zrotation
							End Site
							{
								OFFSET 0.007145 0.940779 8.161865
							}
						}
					}
				}
			}
		}
	}
	JOINT LeftUpLeg
	{
		OFFSET 7.815102 1.202170 -1.433090
		CHANNELS 3 Xrotation Yrotation Zrotation
		JOINT LeftUpLegRoll
		{
			OFFSET 0.000000 -0.000003 19.496002
			CHANNELS 3 Xrotation Yrotation Zrotation
			JOINT LeftLeg
			{
				OFFSET 0.000000 -0.000004 24.142593
				CHANNELS 3 Xrotation Yrotation Zrotation
				JOINT LeftLegRoll
				{
					OFFSET 0.000000 -0.000005 24.445602
					CHANNELS 3 Xrotation Yrotation Zrotation
					JOINT LeftFoot
					{
						OFFSET 0.000000 -0.000003 19.936600
						CHANNELS 3 Xrotation Yrotation Zrotation
						JOINT LeftToeBase
						{
							OFFSET 0.000000 -0.000003 16.853195
							CHANNELS 3 Xrotation Yrotation Zrotation
							End Site
							{
								OFFSET -0.032013 0.940780 8.161865
							}
						}
					}
				}
			}
		}
	}
}
MOTION
Frames: 5
Frame Time: 0.041667
50.139801 -13.601115 100.644997 -2.635377 0.216991 3.561747 -2.019564 -0.100208 -0.132234 -0.036525 -0.196816 -0.258369 1.608550 -0.200648 -0.255974 26.480129 2.097766 0.238230 6.762536 3.827366 -0.187549 -8.319561 -66.343219 -10.349560 -46.113288 -111.036992 -30.228874 -0.000002 -0.000000 0.000000 1.831301 -13.611306 0.016545 -0.000000 0.000006 -3.014510 -5.000242 -7.998731 0.000157 -7.147909 61.624576 8.671021 -37.063120 115.616279 30.627832 0.000002 0.000002 0.000002 3.446006 12.069482 0.048820 -0.000003 0.000004 3.000001 -5.000260 7.998715 -0.000169 1.577250 -178.636522 -0.520143 -179.999991 0.000005 -1.092006 174.626449 -1.318183 -0.420989 -0.000002 0.000004 0.033368 68.413115 6.901200 2.136989 25.456960 -7.355613 -0.000001 0.128415 176.403009 1.747923 -0.000005 -0.000004 -1.113610 -8.028598 2.303018 0.487933 -0.000003 0.000001 -0.147791 70.215649 -6.878665 -2.066951 25.459455 7.346987 -0.003834 
50.147202 -13.605515 100.648003 -2.632491 0.218828 3.559132 -2.020234 -0.100208 -0.132227 -0.037867 -0.196818 -0.259966 1.607200 -0.200653 -0.257565 26.475169 2.100221 0.237746 6.765219 3.828815 -0.188212 -8.326739 -66.343936 -10.357700 -46.092838 -111.012390 -30.179543 -0.000001 0.000000 -0.000001 1.857179 -13.590625 0.016766 -0.000001 0.000008 -3.014511 -5.000241 -7.998731 0.000158 -7.141277 61.627936 8.663545 -37.069267 115.615760 30.640495 -0.000001 0.000002 0.000002 3.446348 12.074770 0.048828 -0.000002 0.000004 3.000001 -5.000260 7.998713 -0.000169 1.570149 -178.638502 -0.522779 -179.999991 0.000005 -1.092006 174.623963 -1.316192 -0.420859 -0.000001 0.000004 0.033367 68.411748 6.901207 2.136977 25.456960 -7.355613 -0.000001 0.112618 176.401014 1.750790 -0.000005 -0.000004 -1.113610 -8.050535 2.299171 0.488558 -0.000004 0.000001 -0.147786 70.225539 -6.878705 -2.066847 25.459457 7.346986 -0.003834 
50.147900 -13.602816 100.649010 -2.629588 0.220735 3.556618 -2.020911 -0.100208 -0.132219 -0.039224 -0.196822 -0.261616 1.605850 -0.200661 -0.259209 26.470011 2.102857 0.237239 6.768107 3.830122 -0.188883 -8.333860 -66.344551 -10.365764 -46.072372 -110.987767 -30.130697 0.000000 0.000001 -0.000000 1.882669 -13.570245 0.016916 -0.000001 0.000006 -3.014509 -5.000237 -7.998733 0.000159 -7.134649 61.631392 8.656086 -37.073970 115.615964 30.651785 0.000000 0.000002 0.000003 3.446860 12.080254 0.048844 -0.000001 0.000005 3.000002 -5.000259 7.998712 -0.000170 1.563018 -178.640510 -0.525483 -179.999991 0.000005 -1.092006 174.621450 -1.314187 -0.420729 -0.000002 0.000004 0.033368 68.410478 6.901189 2.136952 25.456960 -7.355613 -0.000001 0.096397 176.400004 1.753798 -0.000005 -0.000004 -1.113611 -8.073229 2.295141 0.489200 -0.000004 0.000001 -0.147780 70.235921 -6.878651 -2.066993 25.459455 7.346988 -0.003834 
50.143002 -13.595315 100.650002 -2.626680 0.222690 3.554186 -2.021592 -0.100207 -0.132210 -0.040588 -0.196826 -0.263301 1.604479 -0.200669 -0.260891 26.464857 2.105638 0.236683 6.771125 3.831331 -0.189558 -8.340963 -66.345186 -10.373795 -46.050358 -110.963998 -30.080433 -0.000001 -0.000000 0.000000 1.907885 -13.550164 0.017013 0.000002 0.000006 -3.014510 -5.000238 -7.998733 0.000158 -7.128046 61.635060 8.648659 -37.079714 115.615336 30.664380 -0.000000 0.000002 0.000002 3.447506 12.085939 0.048863 -0.000003 0.000004 3.000001 -5.000258 7.998714 -0.000169 1.555855 -178.642505 -0.528231 -179.999991 0.000005 -1.092006 174.618950 -1.313189 -0.420693 -0.000001 0.000004 0.033368 68.409112 6.901197 2.136939 25.456959 -7.355613 -0.000001 0.079873 176.397995 1.756902 -0.000005 -0.000004 -1.113610 -8.096465 2.290979 0.489855 -0.000003 0.000001 -0.147775 70.246447 -6.878699 -2.066850 25.459457 7.346987 -0.003834 
50.140297 -13.599918 100.651009 -2.623767 0.224674 3.551786 -2.022272 -0.100208 -0.132202 -0.041959 -0.196830 -0.265009 1.603110 -0.200679 -0.262593 26.459707 2.108500 0.236116 6.774223 3.832477 -0.190236 -8.348005 -66.345712 -10.381765 -46.028119 -110.940160 -30.030153 -0.000001 0.000000 -0.000001 1.932957 -13.530182 0.017074 -0.000002 0.000007 -3.014510 -5.000241 -7.998731 0.000159 -7.121417 61.638707 8.641209 -37.085489 115.614694 30.677074 0.000002 0.000001 0.000002 3.448218 12.091721 0.048885 -0.000006 0.000004 3.000001 -5.000262 7.998713 -0.000169 1.548690 -178.644486 -0.531004 -179.999991 0.000005 -1.092005 174.616477 -1.311198 -0.420562 -0.000002 0.000004 0.033367 68.407753 6.901207 2.136925 25.456960 -7.355613 -0.000001 0.063178 176.396998 1.760060 -0.000005 -0.000004 -1.113610 -8.120001 2.286747 0.490515 -0.000003 0.000001 -0.147770 70.257170 -6.878679 -2.066983 25.459455 7.346989 -0.003834 
